<svg xmlns="http://www.w3.org/2000/svg" width="24" height="24" viewBox="0 0 24 24"><g fill="none"><path fill="#FEF08A" d="m2.848 16.615l-1.39 5.927l5.927-1.39l.232-.232l-4.536-4.536z"/><path fill="#FEF08A" d="M5.349 18.651L3.08 16.383l-.233.232l-1.39 5.927z"/><path stroke="#854D0E" stroke-linecap="round" stroke-linejoin="round" d="m2.848 16.615l-1.39 5.927l5.927-1.39l.232-.232l-4.536-4.536z" stroke-width="1"/><path fill="#FEF08A" d="m3.081 16.384l4.536 4.536L20.049 8.49l-4.53-4.547z"/><path fill="#FEF08A" d="M15.53 3.955L3.071 16.371l2.264 2.272L17.793 6.227z"/><path stroke="#854D0E" stroke-linecap="round" stroke-linejoin="round" d="m3.081 16.384l4.536 4.536L20.049 8.49l-4.53-4.547z" stroke-width="1"/><path fill="#FACC15" stroke="#854D0E" stroke-linecap="round" stroke-linejoin="round" d="m16.82 2.643l-1.301 1.3l4.53 4.546l1.31-1.31z" stroke-width="1"/><path fill="#FACC15" d="M22.005 6.533a1.834 1.834 0 0 0 0-2.593l-1.946-1.944a1.83 1.83 0 0 0-2.593 0l-.646.647l4.538 4.536z"/><path fill="#FACC15" d="m21.032 2.967l-.973-.972a1.83 1.83 0 0 0-2.593 0l-.646.648l2.269 2.268z"/><path stroke="#854D0E" stroke-linecap="round" stroke-linejoin="round" d="M22.005 6.533a1.834 1.834 0 0 0 0-2.593l-1.946-1.944a1.83 1.83 0 0 0-2.593 0l-.646.647l4.538 4.536z" stroke-width="1"/></g></svg>