<svg xmlns="http://www.w3.org/2000/svg" width="24" height="24" viewBox="0 0 24 24"><g fill="none"><path fill="#5b4a97" d="m1 11.044l5.459-5.46a.96.96 0 0 1 .676-.28h9.73c.254 0 .497.101.676.28L23 11.045z"/><path fill="#c183be" d="m19.175 7.217l-1.633-1.632a.96.96 0 0 0-.677-.28h-9.73c-.253 0-.496.1-.676.28L4.827 7.217z"/><path stroke="#161c4d" stroke-linecap="round" stroke-linejoin="round" d="m1 11.044l5.459-5.46a.96.96 0 0 1 .676-.28h9.73c.254 0 .497.101.676.28L23 11.045" stroke-width="1"/><path fill="#e1c6a8" d="M23 15.826a1.913 1.913 0 0 1-1.913 1.913H2.913A1.913 1.913 0 0 1 1 15.826v-4.783h22z"/><path fill="#f3e5ab" d="M23 11.044H1v2.87h22z"/><path stroke="#161c4d" stroke-linecap="round" stroke-linejoin="round" d="M23 15.826a1.913 1.913 0 0 1-1.913 1.913H2.913A1.913 1.913 0 0 1 1 15.826v-4.783h22z" stroke-width="1"/><path fill="#5b4a97" stroke="#161c4d" stroke-linecap="round" stroke-linejoin="round" d="M3.87 15.826a.957.957 0 1 0 0-1.913a.957.957 0 0 0 0 1.913" stroke-width="1"/><path stroke="#161c4d" stroke-linecap="round" stroke-linejoin="round" d="M2.913 17.74v.956m18.174-.956v.956" stroke-width="1"/><path stroke="#161c4d" d="M13.913 15.348a.24.24 0 0 1 0-.478m.001.478a.24.24 0 0 0 0-.478m2.869.478a.24.24 0 1 1 0-.478m0 .478a.24.24 0 1 0 0-.478m2.87.478a.24.24 0 1 1 0-.478m0 .478a.24.24 0 1 0 0-.478" stroke-width="1"/></g></svg>