<svg xmlns="http://www.w3.org/2000/svg" width="24" height="24" viewBox="0 0 24 24"><g fill="none"><g clip-path="url(#SVGXv8lpc2Y)"><path fill="#c183be" d="M1 1.957A.957.957 0 0 1 1.957 1h7.652a.957.957 0 0 1 .956.957v7.652a.956.956 0 0 1-.956.956H1.957A.956.956 0 0 1 1 9.61z"/><path fill="#ffdda1" d="M6.67 22.548a1.096 1.096 0 0 1-1.774 0l-3.028-4.164a1.09 1.09 0 0 1 0-1.29l3.028-4.164a1.096 1.096 0 0 1 1.773 0l3.029 4.164a1.09 1.09 0 0 1 0 1.29z"/><path fill="#f3e5ab" d="M18.217 10.565a4.783 4.783 0 1 0 0-9.566a4.783 4.783 0 0 0 0 9.566"/><path fill="#c183be" d="M17.606 13.872a.955.955 0 0 0-1.648 0l-4.54 7.684A.957.957 0 0 0 12.24 23h9.087a.957.957 0 0 0 .823-1.444z"/><path fill="#5b4a97" d="M9.609 8.576H1.957A.956.956 0 0 1 1 7.619v1.99a.957.957 0 0 0 .957.956h7.652a.957.957 0 0 0 .956-.956v-1.99a.956.956 0 0 1-.956.957"/><path fill="#d1a4b1" d="M7.121 20.243a2.02 2.02 0 0 1-1.339.452a2 2 0 0 1-1.339-.452l-2.783-2.54c-.01.243.062.484.204.68l3.029 4.165a1.096 1.096 0 0 0 1.773 0l3.028-4.164c.143-.197.215-.438.205-.68z"/><path fill="#2a2a5c" d="M18.217 8.467a4.78 4.78 0 0 1-4.659-3.73a4.781 4.781 0 0 0 8.403 4.055a4.78 4.78 0 0 0 .915-4.055a4.78 4.78 0 0 1-4.659 3.73"/><path fill="#5b4a97" d="M21.916 21.16a.95.95 0 0 1-.589.213H12.24a.95.95 0 0 1-.588-.213l-.234.396A.957.957 0 0 0 12.24 23h9.087a.956.956 0 0 0 .823-1.444z"/><path stroke="#161c4d" stroke-linecap="round" stroke-linejoin="round" d="M1 1.957A.957.957 0 0 1 1.957 1h7.652a.957.957 0 0 1 .956.957v7.652a.956.956 0 0 1-.956.956H1.957A.956.956 0 0 1 1 9.61zm5.67 20.591a1.096 1.096 0 0 1-1.774 0l-3.028-4.164a1.09 1.09 0 0 1 0-1.29l3.028-4.164a1.096 1.096 0 0 1 1.773 0l3.029 4.164a1.09 1.09 0 0 1 0 1.29zm11.547-11.983a4.783 4.783 0 1 0 0-9.566a4.783 4.783 0 0 0 0 9.566m-.611 3.307a.955.955 0 0 0-1.648 0l-4.54 7.684A.957.957 0 0 0 12.24 23h9.087a.957.957 0 0 0 .823-1.444z" stroke-width="1"/></g><defs><clipPath id="SVGXv8lpc2Y"><path fill="#f3e5ab" d="M0 0h24v24H0z"/></clipPath></defs></g></svg>